# xmcd
#
# Track frame offsets:
#	150
#	17805
#	35415
#	48230
#	65852
#	84702
#	104730
#	123227
#	140162
#	156282
#	182100
#	199710
#
# Disc length: 2824 seconds
#
# Revision: 1
# Processed by: cddbd v1.4PL0 Copyright (c) Steve Scherf et al.
# Submitted via: EasyCDDAExtractor 5.1.0
#
DISCID=b10b060c
DTITLE=Various Artist - Bering Strait
DYEAR=2001
DGENRE=Country
TTITLE0=Bering Strait - It's A Lot Like Magic
TTITLE1=Bearing Strait - What Is It About You
TTITLE2=Bearing Strait - I Could Be Persuaded
TTITLE3=Bearing Strait - Tell me Tonight
TTITLE4=Bearing Strait - Jagged Edge Of A Broken Heart
TTITLE5=Bearing Strait - I'm Not Missing You
TTITLE6=Bearing Strait - I Could Use A Hero
TTITLE7=Bearing Strait - The Trouble With Love
TTITLE8=Bearing Strait - Only This Love
TTITLE9=Bearing Strait - Bearing Strait
TTITLE10=Bearing Strait - We Are he Same
TTITLE11=Bearing Strait - Porushka-Paranya
EXTD=
EXTT0=
EXTT1=
EXTT2=
EXTT3=
EXTT4=
EXTT5=
EXTT6=
EXTT7=
EXTT8=
EXTT9=
EXTT10=
EXTT11=
PLAYORDER=
